# xmcd
#
# Track frame offsets: 
#        150
#        14814
#        30672
#        44854
#        74650
#        90488
#        117889
#        131328
#
# Disc length: 1968 seconds
#
# Revision: 0
# Processed by: cddbd v1.5.2PL0 Copyright (c) Steve Scherf et al.
# Submitted via: ExactAudioCopy v1.0b4
#
DISCID=7107ae08
DTITLE=Eddie 'Cleanhead' Vinson - Kidney Stew (LP)
DYEAR=1900
DGENRE=Blues
TTITLE0=Cleanhead Blues
TTITLE1=Kidney Stew
TTITLE2=Just A Dream (On My Mind)
TTITLE3=Tenderly
TTITLE4=Juice Head
TTITLE5=Things Ain't What They Used To Be
TTITLE6=Alimony Blues
TTITLE7=Somebody Sure Has Gotta Go
EXTD=
EXTT0=
EXTT1=
EXTT2=
EXTT3=
EXTT4=
EXTT5=
EXTT6=
EXTT7=
PLAYORDER=
